<?xml version="1.0" encoding="UTF-8" standalone="no"?>
<svg width="36px" height="36px" viewBox="0 0 36 36" version="1.1" xmlns="http://www.w3.org/2000/svg" xmlns:xlink="http://www.w3.org/1999/xlink">
    <!-- Generator: Sketch 39.1 (31720) - http://www.bohemiancoding.com/sketch -->
    <title>search</title>
    <desc>Created with Sketch.</desc>
    <defs></defs>
    <g id="Symbols" stroke="none" stroke-width="1" fill="none" fill-rule="evenodd">
        <g id="Menu" transform="translate(-22.000000, -22.000000)" fill="#FFFFFF">
            <g id="search" transform="translate(22.000000, 22.000000)">
                <g id="Layer_1">
                    <g id="search_1_">
                        <path d="M22.5,0.00557059961 C15.044625,0.00557059961 9,5.99173694 9,13.3750097 C9,15.6322166 9.570375,17.7568433 10.569375,19.6229942 L1.182375,28.9169826 L1.19025,28.9236673 C0.45675,29.6378182 0,30.6271567 0,31.726793 C0,33.8982128 1.7775,35.6585222 3.970125,35.6585222 C5.07825,35.6585222 6.078375,35.2061896 6.7995,34.4786692 L6.79725,34.476441 L16.180875,25.1846809 C18.066375,26.1773617 20.215125,26.7444487 22.5,26.7444487 C29.955375,26.7444487 36,20.7582824 36,13.3750097 C36,5.99173694 29.955375,0.00557059961 22.5,0.00557059961 L22.5,0.00557059961 Z M5.394375,33.0860193 C5.032125,33.4581354 4.530375,33.6909865 3.970125,33.6909865 C2.87325,33.6909865 1.9845,32.8119458 1.9845,31.7256789 C1.9845,31.1708472 2.22075,30.6750638 2.595375,30.3152031 L2.58525,30.3062901 L11.6595,21.3197988 C12.452625,22.3793269 13.397625,23.3151876 14.46525,24.1028704 L5.394375,33.0860193 L5.394375,33.0860193 Z M22.5,24.517323 C16.28775,24.517323 11.25,19.5271799 11.25,13.3761238 C11.25,7.22395358 16.28775,2.23492456 22.5,2.23492456 C28.711125,2.23492456 33.75,7.22395358 33.75,13.3761238 C33.75,19.5271799 28.711125,24.517323 22.5,24.517323 L22.5,24.517323 Z" id="Shape"></path>
                        <path d="M22.5,5.57617021 C18.149625,5.57617021 14.625,9.06782205 14.625,13.3750097 C14.625,13.6825068 14.877,13.9320696 15.1875,13.9320696 C15.498,13.9320696 15.75,13.6825068 15.75,13.3750097 C15.75,9.68393037 18.77175,6.69029014 22.5,6.69029014 C22.809375,6.69029014 23.0625,6.44072727 23.0625,6.13323017 C23.0625,5.82573308 22.809375,5.57617021 22.5,5.57617021 L22.5,5.57617021 Z" id="Shape"></path>
                    </g>
                </g>
            </g>
        </g>
    </g>
</svg>
